PathFileType	4	(X/Y/Z)	5_coords_data.trc
DataRate	CameraRate	NumFrames	NumMarkers	Units	OrigDataRate	OrigDataStartFrame	OrigNumFrames
30.0	30.0	6	21	m	30.0	49	77
Frame#	Time	THUMB_TIP	THUMB_IP	THUMB_MCP	THUMB_CMC	INDEX_TIP	INDEX_DIP	INDEX_PIP	INDEX_MCP	MIDDLE_TIP	MIDDLE_DIP	MIDDLE_PIP	MIDDLE_MCP	RING_TIP	RING_DIP	RING_PIP	RING_MCP	PINKY_TIP	PINKY_DIP	PINKY_PIP	PINKY_MCP	WRIST
X1	Y1	Z1	X2	Y2	Z2	X3	Y3	Z3	X4	Y4	Z4	X5	Y5	Z5	X6	Y6	Z6	X7	Y7	Z7	X8	Y8	Z8	X9	Y9	Z9	X10	Y10	Z10	X11	Y11	Z11	X12	Y12	Z12	X13	Y13	Z13	X14	Y14	Z14	X15	Y15	Z15	X16	Y16	Z16	X17	Y17	Z17	X18	Y18	Z18	X19	Y19	Z19	X20	Y20	Z20	X21	Y21	Z21
47	1.599999999999993	0.5275171740779495	-0.006126847004620628	-0.1230936030680664	0.506370153533764	-0.009218761817293086	-0.13153419456955331	0.4767404743255952	-0.011616226653520245	-0.12230628731058799	0.4714183722103259	-0.021294900152788343	-0.07908721156423251	0.5066960255541065	-0.02474320640915406	-0.11229277838571523	0.5144816860280824	-0.009198654462016065	-0.11736726316219225	0.5238070581580807	0.013384171234346876	-0.12328868623479423	0.4948043878319479	0.03660316875661518	-0.10247140106082024	0.5132448354262101	-0.029172912699496845	-0.10056030276092348	0.523118033157207	-0.014322627488409623	-0.10372084001177206	0.5351032983514818	0.012122769550600654	-0.10625144145649036	0.5059366511857327	0.037831705142600036	-0.08423996161448212	0.5150046964148984	-0.02353050665634293	-0.08428907326271946	0.5290441190734703	-0.012467499531919057	-0.08663523710587459	0.5430244776387798	0.008140864409414528	-0.08647747447748438	0.5171819573417913	0.03307224804857656	-0.06789492652149436	0.5175547702386784	-0.0346281600724615	-0.07550105900009897	0.532666686468591	-0.02660808314057672	-0.07605635519740885	0.5425603055845994	-0.008559982568238533	-0.07190974386788616	0.5245712597078255	0.016670625188847876	-0.053451842804889335	0.4622830810018609	-0.023011742144276925	-0.051989820119430985
48	1.6333333333333262	0.5266539418355305	-0.004009954979418473	-0.13012160279598273	0.5042358555421839	-0.0075784141030063035	-0.13368467821299973	0.47539407334899864	-0.010438044383575207	-0.12233592874095149	0.4709555205768656	-0.020968518485078302	-0.07921634659447702	0.514785091822074	-0.024615675789103286	-0.11745375698332251	0.5209963112009001	-0.00789766537107972	-0.12060476975558347	0.5273345969430372	0.01622534301695433	-0.12375380661815973	0.49617729797560584	0.0358945417696912	-0.10240008480018527	0.5239222722422573	-0.03041647229684774	-0.10559412576883676	0.5311913169209779	-0.01390814190290346	-0.10721770732303737	0.5383787073059687	0.014329403906931382	-0.10659162738307698	0.5072267540511217	0.03701937880242867	-0.08398922112512436	0.524566817786037	-0.025487852708210967	-0.08880428530037751	0.5367673047528637	-0.012216804754254906	-0.08896982676373087	0.546751163720252	0.010423859620266374	-0.08615862492117508	0.5181900371671322	0.03216577625991002	-0.06755024119631961	0.5288187860314026	-0.037570835822455906	-0.08128638470018296	0.5406808292432936	-0.025625325434219248	-0.07818852860220801	0.5462066364978848	-0.006475243093295835	-0.07158914836456755	0.5250068866730192	0.015993452810968645	-0.052971636105277664	0.4622830810018609	-0.023011742144276925	-0.051989820119430985
49	1.6666666666666594	0.5243898504005784	-0.001589967448318741	-0.13723450975233387	0.5018229903895901	-0.005622155594887324	-0.13566025183346214	0.4739298839266237	-0.008938526026547655	-0.12225143760528993	0.4704822301800299	-0.020599135849055372	-0.07933251564526358	0.52490608254535	-0.02306339298847304	-0.12320251288616466	0.5288021929338249	-0.00539636089235318	-0.12403695926280166	0.5311178008962233	0.01963600151214384	-0.12386776938601769	0.4977817985499703	0.03503170262062549	-0.1022965054233076	0.5374406244464458	-0.029633956807712303	-0.1110910885681227	0.5411948140113115	-0.01191815362114168	-0.1108536477002215	0.5420737715549163	0.01690805651362448	-0.10664810458394697	0.5087839793518725	0.035958865398024176	-0.08373513146983003	0.5373091571916663	-0.026131302238017073	-0.093809017409081	0.5462559193634732	-0.010691370370199738	-0.09124699661324712	0.5508276603683236	0.013112470200523307	-0.08553242425232865	0.519454075815349	0.030930614649331445	-0.06728597926436553	0.5443390397242436	-0.03757796208593689	-0.08649020379923195	0.5503958397318996	-0.02305203711666637	-0.07975873460934618	0.5503362400553442	-0.004008767656602963	-0.07091778697066113	0.5256588911800988	0.014931586705017041	-0.052664708322233036	0.4622830810018608	-0.023011742144276925	-0.051989820119430985
50	1.6999999999999926	0.5209512150473887	0.0009285156868783506	-0.14371940318976356	0.49934161815769196	-0.0035781632526755702	-0.1373385594210611	0.47247839223704513	-0.0072814061374619765	-0.12205873333328907	0.46999615559156194	-0.020206379449469014	-0.07943627955456196	0.5367255099602435	-0.01919329319743901	-0.12929027382035174	0.5375072007468343	-0.001199016130106867	-0.1273942378665137	0.5348661431551335	0.02350506884083925	-0.12355459809882834	0.4995452318820309	0.03399923648386116	-0.10220180515931403	0.5533250007487375	-0.025463027894155	-0.11647941306147142	0.5524457797130525	-0.007530381574264777	-0.11410303633709942	0.545961804218747	0.019807415961359265	-0.10635626683681887	0.5105356879361127	0.034646017942228546	-0.08353184795303095	0.5530763805812533	-0.023879050314296713	-0.09867662869613367	0.5569419664967378	-0.007206292757900634	-0.0930130255147969	0.5549212236795127	0.01612478919946514	-0.0845420638122912	0.5209136287570765	0.029380183280763306	-0.06714956976051768	0.5615782247859069	-0.03285036924844986	-0.08911707045173191	0.5607147782639351	-0.018378920731715542	-0.08001588163206655	0.5545980164028649	-0.0011152314756600612	-0.0697512687993624	0.5264788019896026	0.013529135833603156	-0.05255429994167203	0.462283081001861	-0.023011742144276925	-0.05198982011943097
51	1.7333333333333258	0.5167938441854528	0.0033338810723194667	-0.1491404247380008	0.4969315712009186	-0.001572641209302783	-0.1386802071978258	0.4711177998333952	-0.005621817185863964	-0.12176650323636082	0.46955254163289295	-0.019855581275692202	-0.07951913732319557	0.5492881063273632	-0.012395348894695957	-0.1349618000086999	0.5462046074835538	0.004806384929313068	-0.13020865491011813	0.5382631557202824	0.027492477048334796	-0.12284086003927044	0.5014027219337364	0.03276633238630766	-0.10217371304357234	0.5697400716363803	-0.017004873347647775	-0.12087991660194997	0.5634631629894651	-0.0006390217474805393	-0.11632367700776912	0.5497910325332398	0.022841540845984443	-0.10578111664121995	0.5124294691704971	0.033025844755922074	-0.08349790641554108	0.5701065674348439	-0.017360627539484086	-0.10210382874161697	0.5675235213820443	-0.0015595230105096558	-0.0938181200360479	0.5587197881032845	0.019242608893381363	-0.08333262683784406	0.5225450304147091	0.02746373601236418	-0.06725404452887218	0.5768629417596413	-0.024196047823806355	-0.08855443213064496	0.5701139321136244	-0.011920006427971641	-0.07871829079139403	0.5585797240824012	0.0020780304731792265	-0.06814336634691276	0.5274439338289681	0.011775501867912874	-0.05273541175058344	0.4622830810018609	-0.023011742144276925	-0.051989820119430985
52	1.7666666666666588	0.5123791924646338	0.005578579702642972	-0.15338586590534095	0.4947254152084759	0.00026370177841172904	-0.13967104832578559	0.46989405314702815	-0.004069720820999989	-0.12141057443411989	0.46917257491282616	-0.01954696279068069	-0.07957967138183657	0.5608272862162681	-0.0028290125073634487	-0.13911421957394374	0.5538708958220997	0.01226856526713449	-0.13192591114797125	0.541048611973703	0.031370680275515594	-0.12179141204255263	0.5032239401575256	0.03139831313750785	-0.10222282669707046	0.5840038748540418	-0.0047225820051192136	-0.1233057822834481	0.57267113141227	0.007922964364261542	-0.11700823648347003	0.553229068167738	0.025945542824949097	-0.10490028899333051	0.514311502243402	0.031223716583703265	-0.08359977572962317	0.5849449950445605	-0.00708129736727614	-0.10291736728073905	0.5764477000022052	0.00563811479207188	-0.0933773184714406	0.5618540986287033	0.022270767847596296	-0.08195096164671839	0.5241906049796713	0.025330749885277504	-0.06756977288923385	0.588128954630963	-0.014072278728444854	-0.08546068878927883	0.5773423133932888	-0.0046812385867155415	-0.07605554467203474	0.5618056444837906	0.0053847316507981136	-0.0661509911044012	0.528448707414488	0.009811583074779362	-0.053166339132762336	0.4622830810018608	-0.023011742144276925	-0.051989820119430985
